# This file uses centimeters as units for non-parametric coordinates.

mtllib Corner_LP.mtl
g default
v -1.000000 0.000000 -2.981878
v -0.500325 -0.008844 -2.497302
v 0.001313 -0.008195 -2.011623
v -1.000000 1.000000 -2.981878
v -0.500938 0.982455 -2.504398
v 0.007643 0.605889 -2.011623
v 3.000228 1.000000 -2.989987
v 3.000228 1.000000 -2.489987
v 3.000228 0.600000 -1.989987
v 3.000228 0.000000 -2.989987
v 3.000228 0.000000 -2.489987
v 3.000228 0.000000 -1.989987
v -1.000000 0.000000 0.981955
v -0.500000 0.000000 0.981955
v 0.000000 -0.000000 0.981955
v -1.000000 1.000000 0.981955
v -0.500000 1.000000 0.981955
v 0.000000 0.600000 0.981955
vt 0.113695 0.304676
vt 0.113695 0.000000
vt 0.174630 0.000000
vt 0.174630 0.304676
vt 0.855327 0.001873
vt 0.828002 0.027858
vt 0.190811 0.304676
vt 0.190811 0.000000
vt 0.292370 0.000000
vt 0.292370 0.304676
vt 0.637509 0.027397
vt 0.637689 0.000000
vt 0.800155 0.054678
vt 0.637329 0.054795
vt 0.000000 0.000000
vt 0.050779 0.000000
vt 0.050779 0.304676
vt 0.000000 0.304676
vt 0.101559 0.000000
vt 0.101559 0.304676
vt 0.881485 0.225844
vt 0.932265 0.225844
vt 0.932265 0.327403
vt 0.881485 0.327403
vt 0.983044 0.266467
vt 0.983044 0.327403
vt 0.741100 0.194175
vt 0.741100 0.244955
vt 0.639541 0.244955
vt 0.639541 0.194175
vt 0.741100 0.295734
vt 0.680165 0.295734
vt 0.853901 0.219070
vt 0.826697 0.218891
vt 0.799493 0.218712
vt 0.623171 0.318835
vt 0.623171 0.014159
vt 0.505431 0.314790
vt 0.505431 0.010113
vt 0.521612 0.014159
vt 0.316642 0.000000
vt 0.367421 0.000000
vt 0.367421 0.304676
vt 0.316642 0.304676
vt 0.418201 0.000000
vt 0.418201 0.304676
vt 0.444495 0.314790
vt 0.444495 0.010113
vt 0.521612 0.318835
vn -0.002355 0.999814 0.019148
vn -0.003219 0.979181 0.202963
vn -0.003866 0.935493 0.353324
vn -0.002355 0.999814 0.019148
vn -0.004840 0.786441 0.617647
vn -0.004840 0.786441 0.617647
vn 1.000000 0.000000 0.000000
vn 1.000000 0.000000 0.000000
vn 1.000000 0.000000 0.000000
vn 1.000000 0.000000 0.000000
vn 1.000000 0.000000 0.000000
vn 1.000000 0.000000 0.000000
vn 0.001178 -0.999954 -0.009580
vn 0.001850 -0.999983 -0.005444
vn 0.001494 -0.999970 -0.007634
vn 0.001178 -0.999954 -0.009580
vn 0.002625 -0.999996 -0.000677
vn 0.002625 -0.999996 -0.000677
vn -0.007222 0.000038 0.999974
vn -0.007222 0.000038 0.999974
vn -0.007222 0.000038 0.999974
vn -0.007222 0.000038 0.999974
vn -0.002027 0.000000 -0.999998
vn -0.002027 0.000000 -0.999998
vn -0.002027 0.000000 -0.999998
vn -0.002027 0.000000 -0.999998
vn 0.000000 0.000000 1.000000
vn 0.000000 0.000000 1.000000
vn 0.000000 0.000000 1.000000
vn 0.000000 0.000000 1.000000
vn 0.000000 0.000000 1.000000
vn 0.000000 0.000000 1.000000
vn 0.018685 0.999823 -0.002357
vn 0.346967 0.937876 -0.001617
vn 0.206275 0.978492 -0.001968
vn 0.018685 0.999823 -0.002357
vn 0.610316 0.792158 -0.000793
vn 0.610316 0.792158 -0.000793
vn -0.009423 -0.999955 0.001189
vn -0.007402 -0.999972 0.001520
vn -0.005327 -0.999984 0.001861
vn -0.009423 -0.999955 0.001189
vn -0.000628 -0.999996 0.002632
vn -0.000628 -0.999996 0.002632
vn 0.999985 -0.005214 0.001498
vn 0.999985 -0.005214 0.001498
vn 0.999985 -0.005214 0.001498
vn 0.999985 -0.005214 0.001498
vn -1.000000 0.000000 0.000000
vn -1.000000 0.000000 0.000000
vn -1.000000 0.000000 0.000000
vn -1.000000 0.000000 0.000000
s 1
g Corner
usemtl initialShadingGroup
f 4/5/1 5/6/2 8/11/3 7/12/4
f 5/6/2 6/13/5 9/14/6 8/11/3
s 2
f 7/21/7 8/22/8 11/23/9 10/24/10
f 8/22/8 9/25/11 12/26/12 11/23/9
s 3
f 10/15/13 11/16/14 2/17/15 1/18/16
f 11/16/14 12/19/17 3/20/18 2/17/15
s off
f 3/1/19 12/2/20 9/3/21 6/4/22
f 10/7/23 1/8/24 4/9/25 7/10/26
s 4
f 13/27/27 14/28/28 17/29/29 16/30/30
f 14/28/28 15/31/31 18/32/32 17/29/29
s 5
f 16/33/33 17/34/34 5/6/35 4/5/36
f 17/34/34 18/35/37 6/13/38 5/6/35
s 6
f 1/41/39 2/42/40 14/43/41 13/44/42
f 2/42/40 3/45/43 15/46/44 14/43/41
s off
f 15/47/45 3/48/46 6/39/47 18/38/48
f 1/49/49 13/40/50 16/37/51 4/36/52
